<mxfile host="app.diagrams.net" modified="2021-07-11T05:59:55.371Z" agent="5.0 (Windows NT 10.0; Win64; x64) AppleWebKit/537.36 (KHTML, like Gecko) Chrome/91.0.4472.124 Safari/537.36 Edg/91.0.864.64" etag="MfPofxFudqnAG1pu-Xrf" version="14.8.5" type="github">
  <diagram id="NZDJZPf9fXLwSOQ-lTgp" name="Page-1">
    <mxGraphModel dx="1209" dy="776" grid="1" gridSize="10" guides="1" tooltips="1" connect="1" arrows="1" fold="1" page="1" pageScale="1" pageWidth="4681" pageHeight="3300" math="0" shadow="0">
      <root>
        <mxCell id="0" />
        <mxCell id="1" parent="0" />
        <mxCell id="CU8P0Gv6PGfmMF4jzdn7-12" style="edgeStyle=orthogonalEdgeStyle;rounded=0;orthogonalLoop=1;jettySize=auto;html=1;exitX=1;exitY=0.5;exitDx=0;exitDy=0;entryX=0;entryY=0.5;entryDx=0;entryDy=0;dashed=1;endArrow=classic;endFill=1;" edge="1" parent="1" source="CU8P0Gv6PGfmMF4jzdn7-3" target="CU8P0Gv6PGfmMF4jzdn7-4">
          <mxGeometry relative="1" as="geometry" />
        </mxCell>
        <mxCell id="CU8P0Gv6PGfmMF4jzdn7-3" value="&lt;font face=&quot;Comic Sans MS&quot; style=&quot;font-size: 14px&quot;&gt;&lt;b&gt;HomeFunc.Start()&lt;/b&gt;&lt;/font&gt;" style="rounded=0;whiteSpace=wrap;html=1;fillColor=#d5e8d4;strokeColor=#82b366;" vertex="1" parent="1">
          <mxGeometry x="40" y="40" width="160" height="40" as="geometry" />
        </mxCell>
        <mxCell id="CU8P0Gv6PGfmMF4jzdn7-10" value="&lt;font face=&quot;Comic Sans MS&quot;&gt;&lt;span style=&quot;font-size: 14px&quot;&gt;&lt;b&gt;FuncClient.Instance.Initialization()&lt;/b&gt;&lt;/span&gt;&lt;/font&gt;" style="rounded=0;whiteSpace=wrap;html=1;fillColor=#dae8fc;strokeColor=#6c8ebf;" vertex="1" parent="1">
          <mxGeometry x="640" y="80" width="280" height="40" as="geometry" />
        </mxCell>
        <mxCell id="CU8P0Gv6PGfmMF4jzdn7-11" style="edgeStyle=orthogonalEdgeStyle;rounded=0;orthogonalLoop=1;jettySize=auto;html=1;exitX=1;exitY=0.5;exitDx=0;exitDy=0;dashed=1;endArrow=classic;endFill=1;" edge="1" parent="1" source="CU8P0Gv6PGfmMF4jzdn7-6" target="CU8P0Gv6PGfmMF4jzdn7-10">
          <mxGeometry relative="1" as="geometry" />
        </mxCell>
        <mxCell id="CU8P0Gv6PGfmMF4jzdn7-4" value="&lt;font face=&quot;Comic Sans MS&quot; style=&quot;font-size: 14px&quot;&gt;&lt;b&gt;HomeFunc.IsInitialization &amp;lt;- true&lt;/b&gt;&lt;/font&gt;" style="rounded=0;whiteSpace=wrap;html=1;fillColor=#d5e8d4;strokeColor=#82b366;" vertex="1" parent="1">
          <mxGeometry x="280" y="40" width="280" height="40" as="geometry" />
        </mxCell>
        <mxCell id="CU8P0Gv6PGfmMF4jzdn7-6" value="&lt;font face=&quot;Comic Sans MS&quot;&gt;&lt;b style=&quot;font-size: 14px&quot;&gt;HomeFunc.&lt;/b&gt;&lt;span style=&quot;font-size: 14px&quot;&gt;&lt;b&gt;Initialization()&lt;/b&gt;&lt;/span&gt;&lt;/font&gt;" style="rounded=0;whiteSpace=wrap;html=1;fillColor=#d5e8d4;strokeColor=#82b366;" vertex="1" parent="1">
          <mxGeometry x="280" y="80" width="280" height="40" as="geometry" />
        </mxCell>
        <mxCell id="CU8P0Gv6PGfmMF4jzdn7-13" value="&lt;font face=&quot;Comic Sans MS&quot;&gt;&lt;span style=&quot;font-size: 14px&quot;&gt;&lt;b&gt;FuncClient.&lt;/b&gt;&lt;/span&gt;&lt;span style=&quot;font-size: 14px&quot;&gt;&lt;b&gt;FuncStatus &amp;lt;-&amp;nbsp;&lt;/b&gt;&lt;/span&gt;&lt;span style=&quot;font-size: 14px&quot;&gt;&lt;b&gt;FuncType.Home&lt;/b&gt;&lt;/span&gt;&lt;/font&gt;" style="rounded=0;whiteSpace=wrap;html=1;fillColor=#dae8fc;strokeColor=#6c8ebf;" vertex="1" parent="1">
          <mxGeometry x="1000" y="80" width="320" height="40" as="geometry" />
        </mxCell>
        <mxCell id="CU8P0Gv6PGfmMF4jzdn7-14" value="&lt;font face=&quot;Comic Sans MS&quot;&gt;&lt;b style=&quot;font-size: 14px&quot;&gt;HomeFunc.&lt;/b&gt;&lt;span style=&quot;font-size: 14px&quot;&gt;&lt;b&gt;HidekeyboardRayLine()&lt;/b&gt;&lt;/span&gt;&lt;/font&gt;" style="rounded=0;whiteSpace=wrap;html=1;fillColor=#d5e8d4;strokeColor=#82b366;" vertex="1" parent="1">
          <mxGeometry x="640" y="120" width="280" height="40" as="geometry" />
        </mxCell>
        <mxCell id="CU8P0Gv6PGfmMF4jzdn7-16" value="&lt;font face=&quot;Comic Sans MS&quot;&gt;&lt;span style=&quot;font-size: 14px&quot;&gt;&lt;b&gt;FuncClient.&lt;/b&gt;&lt;/span&gt;&lt;span style=&quot;font-size: 14px&quot;&gt;&lt;b&gt;FuncStatus &amp;lt;-&amp;nbsp;&lt;/b&gt;&lt;/span&gt;&lt;span style=&quot;font-size: 14px&quot;&gt;&lt;b&gt;FuncType.Home&lt;/b&gt;&lt;/span&gt;&lt;/font&gt;" style="rounded=0;whiteSpace=wrap;html=1;fillColor=#dae8fc;strokeColor=#6c8ebf;" vertex="1" parent="1">
          <mxGeometry x="1000" y="120" width="320" height="40" as="geometry" />
        </mxCell>
        <mxCell id="CU8P0Gv6PGfmMF4jzdn7-17" value="&lt;font face=&quot;Comic Sans MS&quot;&gt;&lt;span style=&quot;font-size: 14px&quot;&gt;&lt;b&gt;FuncClient.&lt;/b&gt;&lt;/span&gt;&lt;span style=&quot;font-size: 14px&quot;&gt;&lt;b&gt;FuncStatus &amp;lt;-&amp;nbsp;&lt;/b&gt;&lt;/span&gt;&lt;span style=&quot;font-size: 14px&quot;&gt;&lt;b&gt;FuncType.Home&lt;/b&gt;&lt;/span&gt;&lt;/font&gt;" style="rounded=0;whiteSpace=wrap;html=1;fillColor=#dae8fc;strokeColor=#6c8ebf;" vertex="1" parent="1">
          <mxGeometry x="1000" y="160" width="320" height="40" as="geometry" />
        </mxCell>
        <mxCell id="CU8P0Gv6PGfmMF4jzdn7-18" value="&lt;font face=&quot;Comic Sans MS&quot;&gt;&lt;span style=&quot;font-size: 14px&quot;&gt;&lt;b&gt;FuncClient.&lt;/b&gt;&lt;/span&gt;&lt;span style=&quot;font-size: 14px&quot;&gt;&lt;b&gt;FuncStatus &amp;lt;-&amp;nbsp;&lt;/b&gt;&lt;/span&gt;&lt;span style=&quot;font-size: 14px&quot;&gt;&lt;b&gt;FuncType.Home&lt;/b&gt;&lt;/span&gt;&lt;/font&gt;" style="rounded=0;whiteSpace=wrap;html=1;fillColor=#dae8fc;strokeColor=#6c8ebf;" vertex="1" parent="1">
          <mxGeometry x="1000" y="200" width="320" height="40" as="geometry" />
        </mxCell>
        <mxCell id="CU8P0Gv6PGfmMF4jzdn7-19" value="&lt;font face=&quot;Comic Sans MS&quot;&gt;&lt;span style=&quot;font-size: 14px&quot;&gt;&lt;b&gt;FuncClient.&lt;/b&gt;&lt;/span&gt;&lt;span style=&quot;font-size: 14px&quot;&gt;&lt;b&gt;FuncStatus &amp;lt;-&amp;nbsp;&lt;/b&gt;&lt;/span&gt;&lt;span style=&quot;font-size: 14px&quot;&gt;&lt;b&gt;FuncType.Home&lt;/b&gt;&lt;/span&gt;&lt;/font&gt;" style="rounded=0;whiteSpace=wrap;html=1;fillColor=#dae8fc;strokeColor=#6c8ebf;" vertex="1" parent="1">
          <mxGeometry x="1000" y="240" width="320" height="40" as="geometry" />
        </mxCell>
        <mxCell id="CU8P0Gv6PGfmMF4jzdn7-20" value="&lt;font face=&quot;Comic Sans MS&quot; style=&quot;font-size: 14px&quot;&gt;&lt;b&gt;延时&lt;/b&gt;&lt;/font&gt;" style="text;html=1;strokeColor=none;fillColor=none;align=center;verticalAlign=middle;whiteSpace=wrap;rounded=0;" vertex="1" parent="1">
          <mxGeometry x="640" y="60" width="40" height="20" as="geometry" />
        </mxCell>
      </root>
    </mxGraphModel>
  </diagram>
</mxfile>
